<svg xmlns="http://www.w3.org/2000/svg" style="display:none" aria-hidden="true">
<!--
  PPC Philton icon sprite — hand-authored line icons (24x24 viewBox,
  stroke=currentColor, no external icon library/CDN dependency so the
  site works fully offline). Reference with:
  <svg class="icon"><use href="../assets/icons/sprite.svg#icon-NAME"></use></svg>
-->
<defs>

<symbol id="icon-menu" viewBox="0 0 24 24" fill="none" stroke="currentColor" stroke-width="1.75" stroke-linecap="round">
  <line x1="3.5" y1="6.5" x2="20.5" y2="6.5"/><line x1="3.5" y1="12" x2="20.5" y2="12"/><line x1="3.5" y1="17.5" x2="20.5" y2="17.5"/>
</symbol>

<symbol id="icon-close" viewBox="0 0 24 24" fill="none" stroke="currentColor" stroke-width="1.75" stroke-linecap="round">
  <line x1="5" y1="5" x2="19" y2="19"/><line x1="19" y1="5" x2="5" y2="19"/>
</symbol>

<symbol id="icon-chevron-down" viewBox="0 0 24 24" fill="none" stroke="currentColor" stroke-width="1.9" stroke-linecap="round" stroke-linejoin="round">
  <polyline points="5,9 12,16 19,9"/>
</symbol>

<symbol id="icon-chevron-right" viewBox="0 0 24 24" fill="none" stroke="currentColor" stroke-width="1.9" stroke-linecap="round" stroke-linejoin="round">
  <polyline points="9,5 16,12 9,19"/>
</symbol>

<symbol id="icon-arrow-right" viewBox="0 0 24 24" fill="none" stroke="currentColor" stroke-width="1.9" stroke-linecap="round" stroke-linejoin="round">
  <line x1="4" y1="12" x2="19" y2="12"/><polyline points="13,6 19,12 13,18"/>
</symbol>

<symbol id="icon-plus" viewBox="0 0 24 24" fill="none" stroke="currentColor" stroke-width="1.9" stroke-linecap="round">
  <line x1="12" y1="5" x2="12" y2="19"/><line x1="5" y1="12" x2="19" y2="12"/>
</symbol>

<symbol id="icon-phone" viewBox="0 0 24 24" fill="none" stroke="currentColor" stroke-width="1.75" stroke-linecap="round" stroke-linejoin="round">
  <path d="M6.6 10.8c1.4 2.8 3.8 5.2 6.6 6.6l2.2-2.2c.3-.3.7-.4 1.1-.3 1.2.4 2.5.6 3.8.6.6 0 1 .4 1 1V20c0 .6-.4 1-1 1C10.9 21 3 13.1 3 3.7c0-.6.4-1 1-1h3.5c.6 0 1 .4 1 1 0 1.3.2 2.6.6 3.8.1.4 0 .8-.3 1.1L6.6 10.8Z"/>
</symbol>

<symbol id="icon-mail" viewBox="0 0 24 24" fill="none" stroke="currentColor" stroke-width="1.75" stroke-linecap="round" stroke-linejoin="round">
  <rect x="3" y="5.5" width="18" height="13" rx="1.6"/><path d="M4 6.5l8 6.2 8-6.2"/>
</symbol>

<symbol id="icon-map-pin" viewBox="0 0 24 24" fill="none" stroke="currentColor" stroke-width="1.75" stroke-linecap="round" stroke-linejoin="round">
  <path d="M12 21s7-6.5 7-11.6A7 7 0 0 0 5 9.4C5 14.5 12 21 12 21Z"/><circle cx="12" cy="9.4" r="2.4"/>
</symbol>

<symbol id="icon-check" viewBox="0 0 24 24" fill="none" stroke="currentColor" stroke-width="2" stroke-linecap="round" stroke-linejoin="round">
  <polyline points="4,12.5 9.5,18 20,6"/>
</symbol>

<symbol id="icon-check-circle" viewBox="0 0 24 24" fill="none" stroke="currentColor" stroke-width="1.75" stroke-linecap="round" stroke-linejoin="round">
  <circle cx="12" cy="12" r="9"/><polyline points="7.5,12.3 10.5,15.3 16.5,8.7"/>
</symbol>

<symbol id="icon-shield-check" viewBox="0 0 24 24" fill="none" stroke="currentColor" stroke-width="1.75" stroke-linecap="round" stroke-linejoin="round">
  <path d="M12 3l7 3v5.2c0 4.6-3 8.3-7 9.8-4-1.5-7-5.2-7-9.8V6l7-3Z"/><polyline points="8.7,12.2 11,14.5 15.3,9.8"/>
</symbol>

<symbol id="icon-globe" viewBox="0 0 24 24" fill="none" stroke="currentColor" stroke-width="1.6" stroke-linecap="round" stroke-linejoin="round">
  <circle cx="12" cy="12" r="9"/><path d="M3 12h18M12 3a14 14 0 0 1 0 18 14 14 0 0 1 0-18Z"/>
</symbol>

<symbol id="icon-factory" viewBox="0 0 24 24" fill="none" stroke="currentColor" stroke-width="1.7" stroke-linecap="round" stroke-linejoin="round">
  <path d="M3 21V11l5 3.2V11l5 3.2V11l5 3.2V21H3Z"/><path d="M6.5 21v-4M12 21v-4M17.5 21v-4"/><path d="M8 7V3"/>
</symbol>

<symbol id="icon-truck" viewBox="0 0 24 24" fill="none" stroke="currentColor" stroke-width="1.7" stroke-linecap="round" stroke-linejoin="round">
  <rect x="2.5" y="7" width="11" height="9"/><path d="M13.5 10h3.6L20.5 13v3h-7z"/>
  <circle cx="7" cy="18" r="1.8"/><circle cx="17.5" cy="18" r="1.8"/>
</symbol>

<symbol id="icon-droplet" viewBox="0 0 24 24" fill="none" stroke="currentColor" stroke-width="1.7" stroke-linecap="round" stroke-linejoin="round">
  <path d="M12 3.2s6 6.7 6 11a6 6 0 1 1-12 0c0-4.3 6-11 6-11Z"/>
</symbol>

<symbol id="icon-package" viewBox="0 0 24 24" fill="none" stroke="currentColor" stroke-width="1.7" stroke-linecap="round" stroke-linejoin="round">
  <path d="M3.5 7.5 12 3l8.5 4.5V16.5L12 21l-8.5-4.5Z"/><path d="M3.5 7.5 12 12l8.5-4.5M12 12v9"/>
</symbol>

<symbol id="icon-leaf" viewBox="0 0 24 24" fill="none" stroke="currentColor" stroke-width="1.7" stroke-linecap="round" stroke-linejoin="round">
  <path d="M20 4C10 4 4 10 4 18c8 0 14-6 14-14Z"/><path d="M5 19c3-5 6-8 12-12"/>
</symbol>

<symbol id="icon-flask" viewBox="0 0 24 24" fill="none" stroke="currentColor" stroke-width="1.7" stroke-linecap="round" stroke-linejoin="round">
  <path d="M9.5 3h5M10 3v6.2L4.8 18a1.6 1.6 0 0 0 1.4 2.4h11.6a1.6 1.6 0 0 0 1.4-2.4L14 9.2V3"/><path d="M7.7 15h8.6"/>
</symbol>

<symbol id="icon-cross-medical" viewBox="0 0 24 24" fill="none" stroke="currentColor" stroke-width="1.7" stroke-linecap="round" stroke-linejoin="round">
  <circle cx="12" cy="12" r="9"/><path d="M12 8v8M8 12h8"/>
</symbol>

<symbol id="icon-recycle" viewBox="0 0 24 24" fill="none" stroke="currentColor" stroke-width="1.7" stroke-linecap="round" stroke-linejoin="round">
  <path d="M7 3.5 9.8 8H4.6L7 3.5Z"/><path d="M17 3.5 19.4 8h-5.2z" transform="rotate(120 17 5.5)"/>
  <path d="M12 20.5 9.2 16h5.2z" transform="rotate(240 12 18)"/>
  <circle cx="12" cy="12" r="8.2" stroke-dasharray="2 3"/>
</symbol>

<symbol id="icon-clock" viewBox="0 0 24 24" fill="none" stroke="currentColor" stroke-width="1.7" stroke-linecap="round" stroke-linejoin="round">
  <circle cx="12" cy="12" r="9"/><path d="M12 7v5.5l3.6 2.2"/>
</symbol>

<symbol id="icon-users" viewBox="0 0 24 24" fill="none" stroke="currentColor" stroke-width="1.7" stroke-linecap="round" stroke-linejoin="round">
  <circle cx="9" cy="8" r="3.2"/><path d="M2.8 20c.6-3.4 3.2-5.5 6.2-5.5s5.6 2.1 6.2 5.5"/>
  <path d="M15.5 5.2c1.5.4 2.6 1.8 2.6 3.4 0 1.6-1.1 3-2.6 3.4M18 14.7c2.3.5 4 2.4 4.4 5.3"/>
</symbol>

<symbol id="icon-quote" viewBox="0 0 24 24" fill="currentColor" stroke="none">
  <path d="M3 10.5C3 6.9 5.7 4 9.6 3.4l.5 1.9C7.9 6 6.6 7.3 6.4 9H9.6v6.4H3V10.5Zm10.9 0c0-3.6 2.7-6.5 6.6-7.1l.5 1.9c-2.2.7-3.5 2-3.7 3.7h3.2v6.4h-6.6V10.5Z"/>
</symbol>

<symbol id="icon-download" viewBox="0 0 24 24" fill="none" stroke="currentColor" stroke-width="1.75" stroke-linecap="round" stroke-linejoin="round">
  <path d="M12 3v12.5M7.5 11 12 15.5 16.5 11"/><path d="M4 17.5v2A1.5 1.5 0 0 0 5.5 21h13a1.5 1.5 0 0 0 1.5-1.5v-2"/>
</symbol>

<symbol id="icon-file-text" viewBox="0 0 24 24" fill="none" stroke="currentColor" stroke-width="1.6" stroke-linecap="round" stroke-linejoin="round">
  <path d="M6 3h8l4 4v14H6Z"/><path d="M14 3v4h4"/><path d="M8.5 12.5h7M8.5 15.5h7M8.5 9.5h3"/>
</symbol>

<symbol id="icon-image" viewBox="0 0 24 24" fill="none" stroke="currentColor" stroke-width="1.6" stroke-linecap="round" stroke-linejoin="round">
  <rect x="3" y="4.5" width="18" height="15" rx="1.4"/><circle cx="8.3" cy="9.8" r="1.7"/><path d="M21 16 15.5 11 6 19"/>
</symbol>

<symbol id="icon-linkedin" viewBox="0 0 24 24" fill="currentColor" stroke="none">
  <path d="M6.94 5a1.94 1.94 0 1 1-3.88 0 1.94 1.94 0 0 1 3.88 0ZM3.4 8.8h3.1V21H3.4V8.8Zm6.2 0h3v1.68h.04c.42-.78 1.44-1.6 2.96-1.6 3.16 0 3.75 2.02 3.75 4.66V21h-3.1v-5.9c0-1.4-.03-3.2-1.98-3.2-1.98 0-2.28 1.5-2.28 3.1V21h-3.1V8.8Z"/>
</symbol>

<symbol id="icon-alert" viewBox="0 0 24 24" fill="none" stroke="currentColor" stroke-width="1.7" stroke-linecap="round" stroke-linejoin="round">
  <path d="M12 3.5 21.5 20h-19L12 3.5Z"/><path d="M12 9.5v4.2"/><circle cx="12" cy="16.8" r="0.15" fill="currentColor"/>
</symbol>

<symbol id="icon-search" viewBox="0 0 24 24" fill="none" stroke="currentColor" stroke-width="1.75" stroke-linecap="round" stroke-linejoin="round">
  <circle cx="10.8" cy="10.8" r="6.3"/><line x1="15.3" y1="15.3" x2="20.5" y2="20.5"/>
</symbol>

<symbol id="icon-thermometer" viewBox="0 0 24 24" fill="none" stroke="currentColor" stroke-width="1.7" stroke-linecap="round" stroke-linejoin="round">
  <path d="M12 14.5V5a2 2 0 1 0-4 0v9.5a4 4 0 1 0 4 0Z"/>
</symbol>

<symbol id="icon-wheat" viewBox="0 0 24 24" fill="none" stroke="currentColor" stroke-width="1.6" stroke-linecap="round" stroke-linejoin="round">
  <path d="M12 21V6"/><path d="M12 8c-2-1-3-.3-3.6.7M12 8c2-1 3-.3 3.6.7M12 11c-2-1-3-.3-3.6.7M12 11c2-1 3-.3 3.6.7M12 14c-2-1-3-.3-3.6.7M12 14c2-1 3-.3 3.6.7"/>
  <path d="M12 6c0-1.5 1-3 2.5-3.4C12.9 3 12 4.4 12 6Z"/>
</symbol>

</defs>
</svg>
